<?xml version="1.0" encoding="UTF-8"?>
<svg version="1.1" viewBox="0 0 2048 1071" width="1280" height="1280" xmlns="http://www.w3.org/2000/svg">
<path transform="translate(211,230)" d="m0 0h43l-1 7h36v7h21v7h14l1 2v5h13l1 7h6l1 7h6l1 7h6l1 2-1 5h12l2 1 1 14 6-1 1 6-1 2 7-1 1 7h6l1 7v8l6-1 1 8v7l6-1 1 6v9h14v-22h6l2-7 5-1v-8l2-5 6 1v-8l7 1v-8l7 1v-8l7 1v-9l7 2v-9l7 2v-9l7 2v-7l1-1h13v-6l1-1h13v-6l1-1 13-1v-6h22v-7h35v-7h42v7h43v7h21v7h14l1 7h6v7h14v8l7-1v7h13l1 1 1 14 6-1 1 6-1 2 7-1 1 7h6l1 7h5l1 1 1 13h6l1 14h6l1 14 7 1v20l7 1v105l-7 2v26l-1 1h-7v14h-7v14h-7v14h-7v14h-7v14l-6 2-1 6h-6l-1 13-5 1h-1l-1 12-1 2h-5l-1 7-5 1-1 1-1 5h-7v14h-7v8l-7-1 1 3-1 5h-4l-2 1-1 6h-6l-1 5v3l-1 5-5 1-1 7h-7v7h-6l-1 7h-6l-1 7h-5l-2 3v4l-6 1-1 6-5-1-1 2h-1l-1 6-4-1-1 2-1 5-2 1-3-1-1 2-2 5-5 2-2 6h-6l-1 7h-6l-1 7h-6v7l-7 1-1 6-4-1v2h-2l-1 6-6 1-1 6h-7v7h-14v6l-5 2-2-1 1 3-1 5h-7v7h-7v6l-4 1h-3v6l-13 1-2 7-7-1 1 5-2 3h-5l-1 7h-6v7h-7l-1 7h-13l-1 7h-6l-1 7h-6l-2 7h-11l-2-1v8h-6l-1 1v5l-4 1-10-1v7l-1 1h-10l-3-1v-6h-14v-7h-7l-1-5-2-2h-11l-1-7-7-1v-6l-7-1v-7l-13 1-1-1v-14h-7v-28h7v-21h7v-7h134v-7l2-1 5 1v-14l2-1 5 1v-148l-7-1 1-6h-7l-1-1v-5l-98-1-1-5 1-2h-35l-2-7h-5l-1-1v-21h-7v-35h7v-49h-7v-21h-7v-14h-7v-7l-28-1v-6h-83l-2-1v7h-21v14l-1 1h-6v133l-2 1-5-1v7h-14v7l-3 1h-24l-8 1v5l-1 1h-13l-1-5 1-2h-21l-1-1v-14l-6 1-1-1-1-13-6-1v-7h-7v-14h-7v-14h-7v-14h-7v-14h-7v-21h-7v-28h-7v-92h7v-21h7v-22h6l1-14h6l1-7 6 1 1-15 7 1v-8l7 1v-7l1-1h5l2-8 5 1 2-8 5 1 1-8 7 2v-7l1-1 13-1v-5l1-1 13-1v-5l1-1 13-1 1-6h21v-7h42z" fill="#28ACDE"/>
<path transform="translate(211,230)" d="m0 0h43l-1 7h36v7h21v7h14l1 2v5h13l1 7h6l1 7h6l1 7h6l1 2-1 5h12l2 1 1 14 6-1 1 6-1 2 7-1 1 7h6l1 7v8l6-1 1 8v7l6-1 1 6v9h14v-22h6l2-7 5-1v-8l2-5 6 1v-8l7 1v-8l7 1v-8l7 1v-9l7 2v-9l7 2v-9l7 2v-7l1-1h13v-6l1-1h13v-6l1-1 13-1v-6h22v-7h35v-7h42v7h43v7h21v7h14l1 7h6v7h14v8l7-1v7h13l1 1 1 14 6-1 1 6-1 2 7-1 1 7h6l1 7h5l1 1 1 13h6l1 14h6l1 14 7 1v20l7 1v105l-7 2v26l-1 1h-7v14h-7v14h-7v14h-7v14h-7v14l-6 2-1 6h-6l-1 13-5 1h-1l-1 12-1 2h-5l-1 7-5 1-1 1-1 5h-7v14h-7v8l-7-1 1 3-1 5h-4l-2 1-1 6h-6l-1 5v3l-1 5-5 1-1 7h-7v7h-6l-1 7h-6l-1 7h-5l-2 3v4l-6 1-1 6-5-1-1 2h-1l-1 6-4-1-1 2-1 5-2 1-3-1-1 2-2 5-5 2-2 6h-6l-1 7h-6l-1 7h-6v7l-7 1-1 6-4-1v2h-2l-1 6-6 1-1 6h-7v7h-14v6l-5 2-2-1 1 3-1 5h-7v7l-8-3 1-6 5-1 1-5 5-2 4-5 4-2 3-5 11-9 22-22h2l2-4 13-13 11-14 12-14 11-13 11-14 12-16 8-12 13-21 10-17 11-23 8-21 5-19 3-23v-30l-3-19-4-15-8-19-9-17-9-13-11-12-11-10-16-12-19-11-17-7-21-5-6-1h-38l-20 2-14 3-16 6-19 10-22 15-13 12-8 9-13 20-9 16-5 5-14-26-12-17-11-12-13-11-19-12-23-12-15-5-21-3h-40l-19 3-15 4-16 6-16 9-14 10-14 12-11 11-9 12-9 15-9 19-5 17-2 20v33l2 22 5 21 7 20 6 13v2h10v1l-8 1v5l-1 1h-13l-1-5 1-2h-21l-1-1v-14l-6 1-1-1-1-13-6-1v-7h-7v-14h-7v-14h-7v-14h-7v-14h-7v-21h-7v-28h-7v-92h7v-21h7v-22h6l1-14h6l1-7 6 1 1-15 7 1v-8l7 1v-7l1-1h5l2-8 5 1 2-8 5 1 1-8 7 2v-7l1-1 13-1v-5l1-1 13-1v-5l1-1 13-1 1-6h21v-7h42z" fill="#67EDB7"/>
<path transform="translate(1382,378)" d="m0 0h63v7h7l1 3v10l6 1 1 28h6l1 1v14l6-1 1 4v18l6-1 1 1v13h6l1 1v21h7v21h7v28h7v-7h7v-28h7v-14h7v-21l2-1 5 1v-22l7 1v-22h7v-14h7v-28h7v-6l1-2 6 1v-7h50v239l-1 1h-41l-1-32v-123l-6-1-1 8h-7v21h-7v28h-7v14h-7v21h-7v14h-7v21h-7v21l-4 1-3-1v7l-28 1-1-14h-5l-1-1v-21h-7v-14l-7 1v-22h-7v-21h-7v-14h-7l-1-11v-3h-6l-1-16 1-5h-7l-1-1v-21h-7v163h-34l-1-1v-148l-6 1-1-1v-21l7 1v-29h-7z" fill="#2CAFE0"/>
<path transform="translate(1925,364)" d="m0 0h35v7h7l1 232 7 1-1 13-1 1h-6l1 6-1 1h-27l-1-1v-6h-6l-1-1v-6h-14v6l-4 1-10-1v8h-35l-1-2 1-5h-21l-1-3v-4h-6l-1-7-7-1v-6l-7-1v-21h-7v-77l7-1v-13h7v-14l4-1h10v-6l5-1h9l1-7h37l12 1v7h14v-85h-7v-7h7zm-49 120-1 6-6 1-1 13-7 1v70l4 1 4-1-1 7 3 1 5-1-1 7 42 1 1-1v-7l7 1v-85h-7v-14z" fill="#2CAFE0"/>
<path transform="translate(987,371)" d="m0 0h28v7h35l1 2-1 5h22v6l7 1v14h-7v14h-8l1 7h-22v-6l-7-1v-6l-14-1v-7h-35v7h-14v7l-7 1v6l-7 1v6l-2 1-5-1v14l-4 1-3-1v21l-5 1-2-1v57h7v21h7v12l2 2h5l1 14h6l-1 7h15v8l2-1h54v-6l1-1h13v-6l1-1h20l1 1v13h6l1 1v13h-7v7l-4 1h-10v6l-4 1h-24l-1 7h-56v-7h-28l-1-7h-6l-1-7h-12l-2-7-7-1v-13l-7-1v-6l-6-1-1-3v-18h-7v-19l1-2h-8v-63l3-1 4 1v-29h6l1-3v-10l7-2v-6h6l1-3v-5l5 1 2-1v-11l1-2h13v-7l2-1h5l1-6h14v-7h28z" fill="#2CAFE0"/>
<path transform="translate(1142,455)" d="m0 0h63l1 1v7l8-1h5l1 1v7l7-1v8l7-1v8l7-1v8l6-1 1 1v14h7v70l-2 1-5-1v7l-2 1-5-1v14l-2 1-5-1v8h-6l-1 7-7-1v7l-1 1-20-1v7l-1 1h-49l-1-7h-12l-1-1v-7l-6 1-1-1v-7h-7v-7l-4 1-3-1v-7h-7v-7h-7v-28h-7v-35h7v-22l7 1v-15l7 1v-8l7 1v-8l7 1v-8h13zm14 29v7h-7v14h-7v70l3 1 4-1v14l4 1 3-1v7h36v-6h6l1-2v-6h7v-13l7-1v-63h-7v-14h-7v-7z" fill="#2CAFE0"/>
<path transform="translate(1700,455)" d="m0 0h56v8l8-1h6v8l7-1v8l6-1 1 1v7l6-1 1 1v14h7v35h-7v7h-85v7h-14v21h8l-1 7h7v14h8l-1 7h36v-7h14v-7h14l1 7h6l1 7h6v14l-3 1-4-1v7h-28v7l-1 1h-48l-1-5 1-2h-14l-1-3-1-4h-5l-2-7-13-1v-7h-7v-14h-7v-14h-7v-63h7v-8h6l1-13 3-1 4 1v-7l3-1 4 1v-8l7 1v-7l4-1 10 1v-7zm6 29v14h-7v7h-7v6l1 1h6v7h50v-7h7v-14h-7v-14z" fill="#2CAFE0"/>
<path transform="translate(1283,519)" d="m0 0h21v7h14v-6l1-1h28v7h7v21h-7v7h-7v-7h-43v7h-14v-7h-7v-21h7z" fill="#2CAFE0"/>
<path transform="translate(1960,371)" d="m0 0h7v232l-3-3-3-8-1-10z" fill="#2CAFE0"/>
<path transform="translate(1418,436)" d="m0 0 4 1 2 4v13l2 1h-2v163h-7v-169z" fill="#2CAFE0"/>
<path transform="translate(969,412)" d="m0 0 4 2v6l-7 1v6l-7 1v6l-2 1-5-1v14l-4 1-3-1v21l-5 1-2-1v57h7v21h7v12l2 2h5v13h-1v-6h-3v-2h-2l-11-22-4-16-3-6-3-13-1-7v-26l1-4h2l2-7 2-18 4-7 6-10h2l2-4 3-5 5-5z" fill="#2CAFE0"/>
<path transform="translate(1248,505)" d="m0 0h7v70l-2 1-5-1v7l-2 1-4-1-1-6 2-5h2v-2h2z" fill="#2CAFE0"/>
<path transform="translate(1144,494)" d="m0 0 1 3 4-1v9h-7v66l-1-4-4-1-2-13v-42l2-7 3 2 1-2h2v-7z" fill="#2CAFE0"/>
<path transform="translate(1707,617)" d="m0 0h49v7l-1 1h-48l-1-5z" fill="#2CAFE0"/>
<path transform="translate(1024,617)" d="m0 0h6l-1 8h-56v-7z" fill="#2CAFE0"/>
<path transform="translate(1150,617)" d="m0 0h49v7l-1 1h-49v-7z" fill="#2CAFE0"/>
<path transform="translate(969,412)" d="m0 0 4 2v6l-7 1v6l-7 1v6l-2 1-5-1v14l-4 1-3-2v-12l3-5h2l2-4 3-5 5-5z" fill="#649DC8"/>
<path transform="translate(1856,506)" d="m0 0h1l1 6h1l1-6 2 1v55l-6-1-1-7v-43z" fill="#2CAFE0"/>
<path transform="translate(1068,405)" d="m0 0 4 1v14h-8l1 7h-22v-8l2-1 9 3v2l4-6 6-6 2-5z" fill="#7B9CC3"/>
<path transform="translate(1574,436)" d="m0 0h4l1 6v20h-6l-1 8h-7l1-12 2-4h4z" fill="#7F9CC1"/>
<path transform="translate(1869,618)" d="m0 0h35v7h-35l-1-2z" fill="#A6B2CD"/>
<path transform="translate(1791,498)" d="m0 0h7v35h-7z" fill="#2CAFE0"/>
<path transform="translate(1479,462)" d="m0 0 2 1v13h6l1 1v21h7v21h-1l-1-8-3-1-9-30-4-8-3-9z" fill="#91A1C2"/>
<path transform="translate(1346,522)" d="m0 0 1 4h7v21h-7v7h-7v-7h6z" fill="#82A0C5"/>
<path transform="translate(1885,476)" d="m0 0 16 1 4 3v2l11 1v1h-40l-2-5 4-2z" fill="#91AECE"/>
<path transform="translate(1254,545)" d="m0 0h1v30l-2 1-5-1v7l-2 1-4-1-1-6 2-5h2v-2h2v-7l2-4 3-1z" fill="#2CAFE0"/>
<path transform="translate(1788,596)" d="m0 0h3v14l-3 1-4-1v7h-17l2-5 3-2 5-1h7v-10l1-2z" fill="#B4BFD6"/>
<path transform="translate(387,613)" d="m0 0 10 2 78 1 11 1v1h-98z" fill="#7BC5BB"/>
<path transform="translate(687,670)" d="m0 0 2 1 2 8-1 2-5 1-1 7h-7v7h-6l-3-3 2-4 3-3h2l1-4z" fill="##2CAFE0"/>
<path transform="translate(1961,617)" d="m0 0h5l2 7-1 1h-27l-1-1v-6z" fill="##2CAFE0"/>
<path transform="translate(938,526)" d="m0 0h7v21h7v12l2 2h5v13h-1v-6h-3v-2h-2l-11-22z" fill="#BCC7DC"/>
<path transform="translate(554,800)" d="m0 0 3 1v6l-5 2-2-1 1 3-1 5h-7v7l-8-3 1-6 5-1 1-5 5-2 4-5z" fill="#8BC4C3"/>
<path transform="translate(1382,391)" d="m0 0h2l1 7 3-1 1 2v21h-7z" fill="#28ACDF"/>
<path transform="translate(1165,477)" d="m0 0h11l9 2 3 4-2 1h-29l-1-2h4l2-4z" fill="#2CAFE0"/>
<path transform="translate(1718,477)" d="m0 0h12l8 2 2 4-1 1h-25v-5z" fill="#2CAFE0"/>
<path transform="translate(715,635)" d="m0 0h2l2 10v1h-7v8l-7-1 1 3-1 2-6 1v-5l5-2 1-6 4-2 3-6z" fill="#2CAFE0"/>
<path transform="translate(573,784)" d="m0 0 4 3 1 7h-7l-1 5-4 1-6-1-1-3h3l2-4 7-6h2z" fill="#2CAFE0"/>
<path transform="translate(1446,385)" d="m0 0h6l1 3v10l6 1v13l-3 2-4-14-4-5-2-5z" fill="#2CAFE0"/>
<path transform="translate(1141,514)" d="m0 0h1v44h-1l-4-14-1-9 1-8 3 1z" fill="#2CAFE0"/>
<path transform="translate(943,447)" d="m0 0 2 1v21l-5 1-2-1v-10l1-8z" fill="#2CAFE0"/>
<path transform="translate(738,605)" d="m0 0h2v11l-1 2h-5l-1 7-5 1-2-2 1-6 5-2 1-6z" fill="#E8EBF1"/>
<path transform="translate(1135,538)" d="m0 0h2l5 20v13l-1-4-4-1-2-13z" fill="#869ABF"/>
<path transform="translate(296,448)" d="m0 0h10l9 3 2 4h-21z" fill="#2CAFE0"/>
<path transform="translate(1554,498)" d="m0 0h1l1 5 2-3v19h-7v-10l2-10z" fill="#2CAFE0"/>
<path transform="translate(1214,608)" d="m0 0 5 1 1 2v6l-1 1-14-1v-3l5-4z" fill="#7B9CC3"/>
<path transform="translate(1487,484)" d="m0 0h1v14h7v21h-1l-1-8-3-1-6-20 1-5z" fill="#879CC0"/>
<path transform="translate(1495,519)" d="m0 0h7v27h-1l-1-13h-4l-1-5z" fill="#6EA1C9"/>
<path transform="translate(936,465)" d="m0 0h1v13l-1 7-3 2-1 15h-1v-26l1-4h2z" fill="#28ACDF"/>
<path transform="translate(201,448)" d="m0 0h10v7h-18l4-5z" fill="#2CAFE0"/>
<path transform="translate(1048,610)" d="m0 0h10v7l-4 1-11-1v-4l-2-1z" fill="#849BC0"/>
<path transform="translate(1967,603)" d="m0 0 8 1-1 13-1 1h-5l-1-2z" fill="#2CAFE0"/>
<path transform="translate(1701,484)" d="m0 0h5v14h-6l-2-1v-2l-2-1h2l1-5z" fill="#66A0CA"/>
<path transform="translate(977,406)" d="m0 0h10v7h-13l-2-4-2-1z" fill="#86A1C5"/>
<path transform="translate(1692,540)" d="m0 0h13l1 1v6h-14z" fill="#2CAFE0"/>
<path transform="translate(1287,547)" d="m0 0h10v7h-14v-6z" fill="#8B9ABE"/>
<path transform="translate(949,432)" d="m0 0 1 3h2v13l-4 1-3-2v-8l2-5h2z" fill="#2CAFE0"/>
<path transform="translate(1248,505)" d="m0 0h7v31h-1l-1-14-2-7-2-1z" fill="#2CAFE0"/>
<path transform="translate(796,490)" d="m0 0h1v21l-1 1h-7l3-11 2-2z" fill="#2CAFE0"/>
<path transform="translate(438,894)" d="m0 0 4 1 2 1v4h-6l-1 1v5l-4 1-5-3 2-1-1-3h5v-2h2v-3z" fill="#2CAFE0"/>
<path transform="translate(588,766)" d="m0 0m-1 1m-1 1m-1 1m-1 1m-1 1m-1 1m-1 1m-1 1m-1 1m-1 1m-1 1m-1 1m-1 1m-1 1m-1 1m-1 1m-1 1m-1 1m-1 1m-1 1 1 3-6 5-3 3v2h11v2h-15l-1-2 3-5z" fill="#71DAB9"/>
<path transform="translate(1540,538)" d="m0 0 2 3 2-2v15h-7l1-11z" fill="#2CAFE0"/>
<path transform="translate(1777,609)" d="m0 0h6v3l-3 1v3l-3 1h-10l2-5 3-2z" fill="#7C9CC2"/>
<path transform="translate(1064,603)" d="m0 0h8v7l-4 1-9-1 1-2-3-1v-2z" fill="#93A9C9"/>
<path transform="translate(1068,407)" d="m0 0 4 2v11h-8v-6z" fill="#2CAFE0"/>
<path transform="translate(118,618)" d="m0 0 8 2 1 4-1 1h-13l-1-5z" fill="#2CAFE0"/>
<path transform="translate(1247,562)" d="m0 0h1v20l-2 1-4-1-1-6 2-5h2v-2h2z" fill="#709EC6"/>
<path transform="translate(182,593)" d="m0 0h1v10l-2 1-5-1v7h-7l2-4 4-4h2v-6l4 1z" fill="#A0F2D1"/>
<path transform="translate(1546,518)" d="m0 0 3 4 2-3v14h-7l1-11z" fill="#2CAFE0"/>
<path transform="translate(1470,441)" d="m0 0 4 1v21l-2-4-5-16z" fill="#2CAFE0"/>
<path transform="translate(480,863)" d="m0 0 5 1 2 5-1 3-9-1v-2h-3v-2l3-2z" fill="#2CAFE0"/>
<path transform="translate(524,826)" d="m0 0 5 4v6h-9l-3-2v-2l3-1 1-3z" fill="#2CAFE0"/>
<path transform="translate(1923,603)" d="m0 0h6l1 2h-3v3l2 1 1-3 2 5h-13l-1-7z" fill="#9AB8D5"/>
<path transform="translate(945,436)" d="m0 0 1 3v9l-4 2-3 1v8h-2l1-12 4-7z" fill="#739EC5"/>
<path transform="translate(455,883)" d="m0 0 2 1v2l2 1-2 6h-6v-2l-4-1v-2h3v-3z" fill="#2CAFE0"/>
<path transform="translate(715,635)" d="m0 0h2l2 10v1h-7l-1 2-1-7z" fill="#2CAFE0"/>
<path transform="translate(1522,595)" d="m0 0h1v15l-4 1-3-1 2-10 2-2 1 1z" fill="#2CAFE0"/>
<path transform="translate(797,378)" d="m0 0h7v25h-1l-3-16-2-7z" fill="#2CAFE0"/>
<path transform="translate(947,610)" d="m0 0 9 2 2 2-3 1-1 2-9 1v-6h2z" fill="#94AACB"/>
<path transform="translate(938,526)" d="m0 0h7l-1 17-2-2-4-13z" fill="#2CAFE0"/>
<path transform="translate(803,459)" d="m0 0h1v24l-1 1h-6l-2-2 4-2 2-4z" fill="#2CAFE0"/>
<path transform="translate(1446,385)" d="m0 0h6l1 3v11l-4-2-3-7z" fill="#94A7C7"/>
<path transform="translate(580,778)" d="m0 0 4 2 1 7-6 1-4-4v-2h2l1-3z" fill="#2CAFE0"/>
<path transform="translate(1059,575)" d="m0 0h12l1 1v13h-1v-7h-6l-1-6h-5z" fill="#7F9FC5"/>
<path transform="translate(1868,494)" d="m0 0h1v10l-1 1h-6l-1-4 1-6 6 3-1-3z" fill="#2CAFE0"/>
<path transform="translate(1059,419)" d="m0 0 5 1 1 7h-10l2-6z" fill="#2CAFE0"/>
<path transform="translate(1245,490)" d="m0 0 3 1v14l-2-1-5-11v-2z" fill="#A6B8D3"/>
<path transform="translate(1788,483)" d="m0 0 3 1v15l-3-4-4-11z" fill="#8AA2C5"/>
<path transform="translate(1486,476)" d="m0 0 2 1-1 13-4-4-2-9z" fill="#FCFCFC"/>
<path transform="translate(532,820)" d="m0 0 4 3v6l-4 1h-2l-3-4v-3l5-1z" fill="#EBEEF3"/>
<path transform="translate(962,418)" d="m0 0 2 1v2h2v6l-6 1-4-3v-2h3v-2h3z" fill="#F5F6F9"/>
<path transform="translate(1230,593)" d="m0 0 3 4 1 7h-6l-2-3 1-5h3z" fill="#BECBDF"/>
<path transform="translate(486,857)" d="m0 0h5l3 4v4h-7l-3-4v-2h2z" fill="#EFF1F5"/>
<path transform="translate(417,907)" d="m0 0h6v6l-1 1h-10l3-3z" fill="#6FCFC0"/>
<path transform="translate(587,771)" d="m0 0 4 2-1 6h-2v2l-3-1v-2l-3-1 3-5z" fill="#F0F2F6"/>
<path transform="translate(1217,610)" d="m0 0 3 1v6l-1 1h-7v-2l-2-1 4-2v-2z" fill="#FBFCFC"/>
<path transform="translate(1144,494)" d="m0 0 1 3 4-1v9h-7z" fill="#2CAFE0"/>
<path transform="translate(1382,448)" d="m0 0 4 1h-2v13l2 4h3v3l-6 1-1-1z" fill="#36A9DA"/>
<path transform="translate(1528,575)" d="m0 0h1v14h-6l3-12z" fill="#2CAFE0"/>
<path transform="translate(730,616)" d="m0 0h2l1 9-5 1-2-2 1-6z" fill="#F2F4F7"/>
<path transform="translate(161,610)" d="m0 0h1v7l-3 1-11-1 4-2 6-4z" fill="#78EFBF"/>
<path transform="translate(1533,557)" d="m0 0 2 4 2-3v10h-7l2-9z" fill="#2CAFE0"/>
<path transform="translate(950,560)" d="m0 0 9 1v13h-1v-6h-3v-2h-2z" fill="#94A6C7"/>
<path transform="translate(659,702)" d="m0 0 5 2-1 6-8-1 1-6z" fill="#DDE1EC"/>
<path transform="translate(666,694)" d="m0 0h2l2 9h-6l-2-1 1-6z" fill="#EDEFF4"/>
<path transform="translate(759,573)" d="m0 0 2 2v7l-7 1 1-7z" fill="#F6F7FA"/>
<path transform="translate(1340,547)" d="m0 0h7v7h-7z" fill="#B9C2D8"/>
<path transform="translate(955,426)" d="m0 0 4 2v6l-2 1-5-1-1-5z" fill="#F6F7FA"/>
<path transform="translate(460,878)" d="m0 0h4l1 8h-5l-3-3 1-4z" fill="#F9F9FB"/>
<path transform="translate(539,814)" d="m0 0 4 2v7l-8-3 1-5z" fill="#DEE2ED"/>
<path transform="translate(1560,481)" d="m0 0 4 2h1v8h-6v-7z" fill="#2CAFE0"/>
<path transform="translate(638,723)" d="m0 0h2v2h2l-1 6-4-1-1 2-2-2 1-5z" fill="#D8DDE9"/>
<path transform="translate(1786,533)" d="m0 0h5v7h-7v-6z" fill="#829EC2"/>
<path transform="translate(1700,491)" d="m0 0h6v7h-6l-1-5z" fill="#2CAFE0"/>
<path transform="translate(1046,420)" d="m0 0 5 1v3l2 2-1 1h-9l2-6z" fill="#2CAFE0"/>
<path transform="translate(631,730)" d="m0 0h2l2 5v3l-5-1-1 2-2-2 1-6z" fill="#DCE1EB"/>
<path transform="translate(1564,472)" d="m0 0h1v11l-5 1h-1l1-8h4z" fill="#7F9CC1"/>
<path transform="translate(967,414)" d="m0 0 6 1v5l-5 1-3-3v-3z" fill="#F6F7F9"/>
<path transform="translate(1022,408)" d="m0 0 9 1 3 3-3 1h-9z" fill="#A5B3D0"/>
<path transform="translate(1711,477)" d="m0 0h7l-3 2-1 5h-7l-1-2 3-1v-3z" fill="#68A0C9"/>
<path transform="translate(1918,371)" d="m0 0h7l-1 7h-6z" fill="#2499D3"/>
<path transform="translate(493,851)" d="m0 0h5l2 2v5l-7-1-1-3z" fill="#F3F4F7"/>
<path transform="translate(621,738)" d="m0 0h5l1 1v5l-5 2-2-2z" fill="#DFE3ED"/>
<path transform="translate(1870,620)" d="m0 0h19v1l-10 1-3 2h-6z" fill="#28ACDF"/>
<path transform="translate(1857,560)" d="m0 0 5 2v11h-1l-1-5-3-1-1-6z" fill="#839BC0"/>
<path transform="translate(1550,511)" d="m0 0h1v8l-2 6-2-4-1-8h3z" fill="#719EC6"/>
<path transform="translate(438,894)" d="m0 0 4 1 2 1v4h-8l-2-2h2v-3z" fill="#B7CBD8"/>
<path transform="translate(1967,603)" d="m0 0h1l1 8 4 3v4h-5l-1-2z" fill="#99A9C8"/>
<path transform="translate(1235,588)" d="m0 0 5 3 1 5-2 1-5-2-1-3 2-1z" fill="#F5F6F9"/>
<path transform="translate(788,514)" d="m0 0h1v12h-6l2-7 2-1z" fill="#2CAFE0"/>
<path transform="translate(615,745)" d="m0 0h4l1 7h-6l-2-2z" fill="#D8DDE9"/>
<path transform="translate(1856,501)" d="m0 0 3 4 1-2h2l-3 12-4-4z" fill="#779DC4"/>
<path transform="translate(1464,427)" d="m0 0 3 1v8l-2 4-2-7-2-5z" fill="#7897C0"/>
<path transform="translate(1072,399)" d="m0 0 6 1 1 6h-6l-1-5z" fill="#2CAFE0"/>
<path transform="translate(597,768)" d="m0 0h2l1 5-7 1-1 6h-2v-7l-1-3h8z" fill="#8D9CBF"/>
<path transform="translate(600,759)" d="m0 0 6 1v6l-7-2-1-3h2z" fill="#E3E6EF"/>
<path transform="translate(1224,603)" d="m0 0 3 3v5l-6-1-1-3 1-3z" fill="#F5F6F9"/>
<path transform="translate(1961,583)" d="m0 0 2 4 2 8 2 2v6l-3-3-3-8z" fill="#28ACDF"/>
<path transform="translate(1869,484)" d="m0 0 6 1 1 5-5 1-2-2z" fill="#2CAFE0"/>
<path transform="translate(1151,484)" d="m0 0 5 1v6h-5l-2-5h2z" fill="#2CAFE0"/>
<path transform="translate(1074,392)" d="m0 0h5v10l-1-2-6-1 2-4h2z" fill="#6C9CC6"/>
<path transform="translate(594,765)" d="m0 0 4 1 1 2h-2l1 3h-7v-4z" fill="#2CAFE0"/>
<path transform="translate(1287,547)" d="m0 0h7l1 2-9 1-1 3h8v1h-10v-6z" fill="#2CAFE0"/>
<path transform="translate(978,407)" d="m0 0h9v6h-8l-1-2 5-2-5-1z" fill="#F7F8FA"/>
<path transform="translate(646,716)" d="m0 0 1 2h2v6l-8-2v-2h2v-2z" fill="#E2E5EE"/>
<path transform="translate(723,625)" d="m0 0h2v2l2 1-1 4h-7l2-6z" fill="#E2E5EE"/>
<path transform="translate(926,596)" d="m0 0 4 1-1 6-4 1-2-6z" fill="#7A9AC2"/>
<path transform="translate(744,596)" d="m0 0h2l1 7-5 1h-1v-6z" fill="#EEF0F5"/>
<path transform="translate(1522,589)" d="m0 0h1l-1 10-2 2-1-1-2 3 1-8z" fill="#7A9CC3"/>
<path transform="translate(345,864)" d="m0 0 5 1v4l2 1-6 2-1-1z" fill="#67E0BE"/>
<path transform="translate(502,844)" d="m0 0 6 2-1 5h-5l-2-5z" fill="#E4E7EF"/>
<path transform="translate(1439,490)" d="m0 0 5 2 1 6h-6z" fill="#35A6D8"/>
<path transform="translate(1863,490)" d="m0 0 6 1-1 7-4-2-2-2z" fill="#889EC4"/>
<path transform="translate(1044,418)" d="m0 0 10 3 1 1 1 3-1 2-3-1-2-3 1-2h-5-3z" fill="#729EC6"/>
<path transform="translate(1072,595)" d="m0 0h2l2 4 2 1 1-2v5h-6l-1-1z" fill="#5A8FC1"/>
<path transform="translate(766,560)" d="m0 0 2 1v7h-6l1-5 3-1z" fill="#2CAFE0"/>
<path transform="translate(1159,477)" d="m0 0h6l-5 5h5v1h-10l1-5z" fill="#829BC0"/>
<path transform="translate(969,412)" d="m0 0 4 2-2 1h-6l1 5-2 1-1-2-1 2-3-1 2-4z" fill="#7594BE"/>
<path transform="translate(1243,576)" d="m0 0h4l1 6-2 1-4-1-1-3z" fill="#F7F8FA"/>
<path transform="translate(1528,570)" d="m0 0h2v19h-1l-1-11-2-1 1-6z" fill="#7F9CC1"/>
<path transform="translate(1473,448)" d="m0 0h1v15l-2-4-2-5 1-5z" fill="#8FA3C5"/>
<path transform="translate(696,664)" d="m0 0 2 1-1 3h-5l-1 5v3l-2 1-1-8h2v-3z" fill="#91A0C1"/>
<path transform="translate(182,593)" d="m0 0h1v9l-6-1v-5l4 1z" fill="#69E8B7"/>
<path transform="translate(916,588)" d="m0 0 3 4 3-2 1 5-4 2-3-2z" fill="#7497C3"/>
<path transform="translate(1534,551)" d="m0 0h3v7l-2 4-3-3 1-6z" fill="#7F9CC2"/>
<path transform="translate(533,816)" d="m0 0h2v4l4 1v2h-5l-2-1-5 1 4-4h2z" fill="#7CC7BC"/>
<path transform="translate(944,532)" d="m0 0h1l1 15 2 1-2 4-4-8z" fill="#8CA1C4"/>
<path transform="translate(467,872)" d="m0 0 4 1v6h-5l-1-5z" fill="#EFF1F5"/>
<path transform="translate(652,709)" d="m0 0 3 2v4h-7l1-5z" fill="#2CAFE0"/>
<path transform="translate(1238,583)" d="m0 0 3 1v8l-6-4 1-3z" fill="#7190BF"/>
<path transform="translate(1871,582)" d="m0 0h5v5h-7z" fill="#8EA1C6"/>
<path transform="translate(781,532)" d="m0 0h1v8h-6l2-5z" fill="#FAFAFB"/>
<path transform="translate(1487,484)" d="m0 0h1v14l-2-1-2-9 2-3z" fill="#849BC0"/>
<path transform="translate(1066,385)" d="m0 0h6l-1 5-5 1z" fill="#A4B1CE"/>
<path transform="translate(1145,575)" d="m0 0h4v6h-5l-1-5z" fill="#5099C9"/>
<path transform="translate(1543,531)" d="m0 0h1v8l-3 3-2-3 1-5z" fill="#7A9DC3"/>
<path transform="translate(1694,496)" d="m0 0 2 1v2l3 1v4l-6-1z" fill="#2CAFE0"/>
<path transform="translate(1571,464)" d="m0 0 2 1-1 5h-6v-4z" fill="#2CAFE0"/>
<path transform="translate(514,836)" d="m0 0 1 3-2 3h-5v-4z" fill="#AADCD3"/>
<path transform="translate(1051,611)" d="m0 0h6l1 5-1 2-5-1 3-2v-2h-5z" fill="#2CAFE0"/>
<path transform="translate(1911,610)" d="m0 0 7 2v5l-4 1-1-4z" fill="#2CAFE0"/>
<path transform="translate(545,808)" d="m0 0 4 2 1 4h-3l-4-1 1-4z" fill="#F9FAFB"/>
<path transform="translate(1701,575)" d="m0 0h5v6h-6v-3h3l-2-1z" fill="#C8CFE1"/>
<path transform="translate(774,546)" d="m0 0h1v8h-6l2-4z" fill="#F5F6F9"/>
<path transform="translate(1145,490)" d="m0 0 4 1v5l-4 1-1-5z" fill="#879ABF"/>
<path transform="translate(611,755)" d="m0 0h2v4h-6l-1 2-3-2v-2l6-1 2 1z" fill="#8B9ABE"/>
<path transform="translate(1865,575)" d="m0 0h4l-1 6h-4l-1-5z" fill="#6395C5"/>
<path transform="translate(791,357)" d="m0 0h6v18h-1l-2-17z" fill="#2CAFE0"/>
<path transform="translate(608,752)" d="m0 0 5 1 1 2h-3v2l-4 1-1-3z" fill="#F9FAFB"/>
<path transform="translate(556,808)" d="m0 0" fill="#8B9ABE"/>
<path transform="translate(627,744)" d="m0 0" fill="#8B9ABE"/>
</svg>
