<?xml version="1.0" encoding="UTF-8"?>
<svg version="1.1" viewBox="0 0 2048 1071" width="1280" height="1280" xmlns="http://www.w3.org/2000/svg">
<path transform="translate(487,360)" d="m0 0h25v3l18 1 3 1v2l9 1 19 9v2l4 2 5 6 5 5h5l2 4 1 4 4 3v2h2l5 6 3 7 2 6 3 2 1 7h7v-10l7-7 2-6 30-30 5-1 3-3h6l1-4h7l2-4 10-1 1-3 19-1 1-3h25v3l23 1 7 3 14 5 1 3 4 2 1 3h6l1 3 4 2 1 3 7 1 2 6 13 13 14 28 2 9 2 1v60l-3 1-1 16-3 3-2 6h-2l-1 5-4 8-1 3-2 1-3 8-3 6-5 6-2 2-1 5-2 1-2 7-3 1-2 4h-2l-2 4-2 1-2 7-13 13h-2v6l-70 70-7 3-13 13-7 6h-5l-2 4-9 9-8 7h-5l-2 4-10 9h-5l-2 4-7 4-6 4-5-1-5-3-7-4-4-4-5-2-10-10-7-2-2-7-2-4 1-11 2-3 1-9 5-6 76-1 4-4 3-7 1-1v-84l-8-8-40-1h-15l-2-3-15-1-5-1-4-6-2-9-1-1-1-7v-9l1-4 2-1v-27l-2-1-3-12-5-9v-2l-13-1-5-2v-2h-47l-4 4h-10v7l-4 1v77l-5 4-7 1-1 3-3 1-16 1-1 2h-7l-5-2-8-2-2-6-6-11-6-9-14-28-5-17-1-9-3-1v-53l3-1 1-10 3-3 1-10 3-2 2-7 6-5 2-7 8-7 5-5 7-8 5-5h5l3-4 6-1 2-3 6-1 3-3 10-1 1-3 23-1z" fill="#29AEDF"/>
<path transform="translate(487,360)" d="m0 0h25v3l18 1 3 1v2l9 1 19 9v2l4 2 5 6 5 5h5l2 4 1 4 4 3v2h2l5 6 3 7 2 6 3 2 1 7h7v-10l7-7 2-6 30-30 5-1 3-3h6l1-4h7l2-4 10-1 1-3 19-1 1-3h25v3l23 1 7 3 14 5 1 3 4 2 1 3h6l1 3 4 2 1 3 7 1 2 6 13 13 14 28 2 9 2 1v60l-3 1-1 16-3 3-2 6h-2l-1 5-4 8-1 3-2 1-3 8-3 6-5 6-2 2-1 5-2 1-2 7-3 1-2 4h-2l-2 4-2 1-2 7-13 13h-2v6l-70 70-7 3-13 13-7 6h-5l5-5 10-9 11-9 15-14 12-13 9-10 8-10 15-20 13-20 9-16 8-18 5-18 1-8v-22l-4-17-5-12-6-11-10-13-13-11-15-9-18-6-6-1h-30l-15 3-19 9-14 10-10 10-11 17-4 7-3-3-7-13-9-12-10-9-14-9-15-7-14-3h-29l-16 3-12 5-12 7-13 11-9 10-8 13-5 11-3 11-1 13v10l2 19 4 15 7 16 1 2-1 2h-7l-5-2-8-2-2-6-6-11-6-9-14-28-5-17-1-9-3-1v-53l3-1 1-10 3-3 1-10 3-2 2-7 6-5 2-7 8-7 5-5 7-8 5-5h5l3-4 6-1 2-3 6-1 3-3 10-1 1-3 23-1z" fill="#67ECB9"/>
<path transform="translate(1280,445)" d="m0 0 27 1v138l-1 1h-24v-90l-5 3-2 2-2 11h-3v13l-1 3-2 1-2 7-4 1v12l-3 2v5l-4 1-1 12-3 1-1 11-3 3-1 2h-16l-1-7-2-1-4-13-5-11-7-21-6-13v-3l-3-1-2-11-3-2v-11h-4v93l-1 1h-19l-1-1v-85l-4-1v-11h4v-17h-4v-24h37l4 5 3 7 4 16 5 11 4 11 6 15 3 9 2 7 2 5v12l5-3 2-2 1-13 3-4 3-7 1-1 2-10 2-2 2-10 2-2 1-9 4-4 2-7h2l1-16h3l2-4z" fill="#2BAEE0"/>
<path transform="translate(1485,437)" d="m0 0h12l6 1 4 4 1 134 3 1v7l-4 4h-16l-5-6h-6l-4 3-5 2-1 1h-20l-3-2-8-2-8-7-2-4-3-1-2-10-2-2-1-13v-23l1-8 2-2 2-6 3-3 1-6 7-2 5-3 3-1 1-2h28l1 3h7l1-48-4-1 1-4zm-31 70-1 3-3 3v6l-4 1v40l9 8h22l6-4v-48l-4-1v-8z" fill="#2AAEE0"/>
<path transform="translate(939,442)" d="m0 0h14l3 2 17 2 3 2 10 2 5 5-1 7-5 9-4 3h-8l-9-7-7-3-6-1h-8l-9 3-8 6-7 8-3 6-2 3-2 10h-2v22l1 10 2 2 2 9 8 17 1 3 9 3 2 2h31l4-3 4-1 1-2 4-1h7l3 8 3 3-2 5-6 5-4 1-1 2-4 1h-12v3l-7 1h-13l-13-1-4-2-12-2-6-6-7-3-4-4-2-6-6-7-1-8-3-5-1-9-3-1v-36l3-1v-9l1-6 3-2 2-6 10-11 2-6 7-2 5-5 9-5 14-2z" fill="#2CAFE0"/>
<path transform="translate(1028,491)" d="m0 0h35l10 5 15 15 4 8 2 2v38l-8 7-1 6-8 7-6 6-9 1-1 2h-29l-5-3-8-7-16-16v-14h-3v-20l3-1v-10l4-2v-6l14-14 6-2zm9 16-5 6-1 5-3 2v39l4 4 1 5 3 4 4 1h12l5-2 7-7 2-7 3-1v-36l-3-2-2-6-4-5z" fill="#2BAEE0"/>
<path transform="translate(1352,491)" d="m0 0h31l2 2 7 3 4 3v2h2l7 8 1 5 3 2v19l-4 1-1 4h-48l-2 4h-6l1 11 7 8 4 8 4 1h16l1-3 9-4 3-1 5 3 6 6 1 5-4 6-3 1h-13v3l-2 1h-15l-12-1-5-3-6-4-2-4-7-1-5-6-3-7-2-6-3-2v-35l7-6 2-6 14-14 5-1zm4 16-3 9-5 4 2 5 2 2h28l4-5-1-7-3-8z" fill="#2CAFE0"/>
<path transform="translate(1112,527)" d="m0 0h9l3 4h5l2-4h12l4 1 4 6v8l-4 5h-4v-3h-25v3h-8l-4-4v-9z" fill="#33B1E1"/>
<path transform="translate(734,649)" d="m0 0 2 1-40 40-7 3-13 13-7 6h-5l5-5 10-9 11-9 15-14 10-9 8-7 8-8z" fill="#FBFCFC"/>
<path transform="translate(934,463)" d="m0 0 4 1-10 6-8 8-4 8-2 3-2 10h-2v14h-1v-20l4-11 6-9 9-8z" fill="#F7FBFC"/>
<path transform="translate(1090,518)" d="m0 0 4 3v38l-8 6 2-6 2-5 1-6v-17z" fill="#EFF7FB"/>
<path transform="translate(1041,504)" d="m0 0h10l5 1v1l-14 1-5 1-4 5-2 6-2 1-1 5-1 27h-1l-1-9v-12l2-12 5-10 5-4z" fill="#F1F8FB"/>
<path transform="translate(1452,507)" d="m0 0h2l-1 4h-2l-1 8-3 1-1 5-1 29h-1l-1-6v-24l4-11z" fill="#FDFDFD"/>
<path transform="translate(989,458)" d="m0 0 2 2-6 11-4 3h-8l-9-7 3-1 8 6 5-1 8-11z" fill="#FDFDFD"/>
<path transform="translate(1269,512)" d="m0 0h1v12l-1 3-2 1-2 7-4 1 3-10z" fill="#E2F3F9"/>
<path transform="translate(765,616)" d="m0 0 1 4-26 26v-3l12-12 5-6h2l2-5h2z" fill="#FDFDFD"/>
<path transform="translate(663,712)" d="m0 0v3l-10 10-8 7h-5l5-5 11-9z" fill="#FDFDFD"/>
<path transform="translate(1084,567)" d="m0 0 2 1-1 4-8 7-6 6h-8l12-8 8-8z" fill="#FDFDFD"/>
<path transform="translate(1406,515)" d="m0 0 3 1v19l-4 1z" fill="#F6FAFC"/>
<path transform="translate(1508,577)" d="m0 0h3v7l-4 4h-16v-2l14-1 2-1z" fill="#F5FAFC"/>
<path transform="translate(1384,585)" d="m0 0 1 3-2 1h-15l-12-1-1-2h26z" fill="#D3EDF7"/>
<path transform="translate(1260,537)" d="m0 0h1v11l-3 2v5l-4 1 2-9z" fill="#DBF0F8"/>
<path transform="translate(639,732)" d="m0 0v3l-11 10h-5l5-5z" fill="#FDFDFD"/>
<path transform="translate(1452,507)" d="m0 0h2l-1 4h-2l-1 8-5 1 1-5z" fill="#E0F2F9"/>
<path transform="translate(1403,573)" d="m0 0 2 3-2 5-2 3-3 1h-10l4-2 8-3 2-2z" fill="#FDFDFD"/>
<path transform="translate(987,576)" d="m0 0 2 1-5 4-4 1-1 2-4 1h-7l3-2 15-6z" fill="#EDF7FA"/>
<path transform="translate(1279,484)" d="m0 0h1v10l-5 6-1-2z" fill="#FDFDFD"/>
<path transform="translate(1355,507)" d="m0 0 1 4-2 5-5 3 1-5z" fill="#EAF6FA"/>
<path transform="translate(910,531)" d="m0 0 3 2 2 9 3 6-1 3-4-8-3-9z" fill="#DDF1F8"/>
<path transform="translate(1041,504)" d="m0 0h10l5 1v1l-19 1 1-2z" fill="#FDFDFD"/>
<path transform="translate(536,487)" d="m0 0 13 2v2h-8l-5-2z" fill="#FDFDFD"/>
<path transform="translate(484,487)" d="m0 0h4l-1 3-2 1h-9l1-2z" fill="#FDFDFD"/>
<path transform="translate(1248,570)" d="m0 0h1v10l-5 3 3-10z" fill="#D7EEF7"/>
<path transform="translate(781,596)" d="m0 0 1 4-10 10v-3l5-6 3-2z" fill="#FDFDFD"/>
<path transform="translate(1482,577)" d="m0 0 2 1-8 7-4-1z" fill="#FDFDFD"/>
</svg>
